<svg width="600" height="392" xmlns="http://www.w3.org/2000/svg"> <rect width="100%" height="100%" fill="#FEFEFE" />
<line x1="70" y1="252" x2="530" y2="252" stroke="#9f9f9f" stroke-width="1" />
<rect x="70" y="87" width="460" height="165" fill="#FEFEFE" />
<text text-anchor="middle" x="300.0" y="20" font-family="'Helvetica Neue', Arial, sans-serif" font-weight="bold" font-size="22" fill="#000000">Votes for Democratic Senators in Alaska</text>
<text text-anchor="middle" x="300.0" y="42" font-family="'Helvetica Neue', Arial, sans-serif" font-size="14" fill="#000000">correlates with</text>
<text text-anchor="middle" x="300.0" y="68" font-family="'Helvetica Neue', Arial, sans-serif" font-weight="bold" font-size="22" fill="#ba0f27">The number of ticket agents in Alaska</text>
<text text-anchor="start" x="23" y="297.3333333333333" font-family="'Helvetica Neue', Arial, sans-serif" font-size="14" fill="#9f9f9f">Percentage of votes cast for Federal Democrat Senate candidates in Alaska &#183;</text>
<text text-anchor="start" x="23" y="313.3333333333333" font-family="'Helvetica Neue', Arial, sans-serif" font-size="14" fill="#9f9f9f">Source: MIT Election Data and Science Lab, Harvard Dataverse</text>
<text text-anchor="start" x="23" y="336.66666666666663" font-family="'Helvetica Neue', Arial, sans-serif" font-size="14" fill="#9f9f9f">BLS estimate of reservation and transportation ticket agents and travel clerks in</text>
<text text-anchor="start" x="23" y="352.66666666666663" font-family="'Helvetica Neue', Arial, sans-serif" font-size="14" fill="#9f9f9f">Alaska &#183; Source: Bureau of Larbor Statistics</text>
<text text-anchor="start" x="23" y="375.99999999999994" font-family="'Helvetica Neue', Arial, sans-serif" font-size="14" fill="#9f9f9f">2003-2020, r=0.923, r&#178;=0.851, p&lt;0.01  &#183;  tylervigen.com/spurious/correlation/4763</text>
<polyline points="5,292.66666666666663 20,292.66666666666663" style="fill:none;stroke:#000000;stroke-width:2.8" stroke-dasharray="3,1" />
<polygon points="1.7000000000000002,292.66666666666663 5,289.3666666666666 8.3,292.66666666666663 5,295.96666666666664" stroke="#F7F7F7" stroke-width="2.75" fill="#F7F7F7"  />
<polygon points="1.7000000000000002,292.66666666666663 5,289.3666666666666 8.3,292.66666666666663 5,295.96666666666664" stroke="#000000" stroke-width="2.75" fill="#000000"  />
<polyline points="5,331.99999999999994 20,331.99999999999994" style="fill:none;stroke:#ba0f27;stroke-width:2.8" />
<circle cx="5" cy="331.99999999999994" r="2.75" stroke="#F7F7F7" stroke-width="2.75" fill="#F7F7F7" />
<circle cx="5" cy="331.99999999999994" r="2.75" stroke="#ba0f27" stroke-width="2.75" fill="#ba0f27"  />
<text x="5" y="174.5" transform="rotate(270 5 169.5)" text-anchor="middle" fill="#000000" font-family="'Helvetica Neue', Arial, sans-serif" font-size="14" dominant-baseline="central">Percentage of votes</text>
<text x="169.5" y="-389" transform="rotate(90 100 100)" text-anchor="middle" fill="#ba0f27" font-family="'Helvetica Neue', Arial, sans-serif" font-size="14" dominant-baseline="central">Laborers</text>
<line x1="71" y1="94.75" x2="528" y2="94.75" stroke="#F3F3F3" stroke-width="1" fill="#FEFEFE" />
<text text-anchor="end" x="62" y="99.41666666666667" font-family="'Helvetica Neue', Arial, sans-serif" font-size="12" fill="#000000">48%</text>
<text text-anchor="start" x="538" y="99.41666666666667" font-family="'Helvetica Neue', Arial, sans-serif" font-size="12" fill="#ba0f27">1.1K</text>
<line x1="71" y1="132.125" x2="528" y2="132.125" stroke="#F3F3F3" stroke-width="1" fill="#FEFEFE" />
<text text-anchor="end" x="62" y="136.79166666666666" font-family="'Helvetica Neue', Arial, sans-serif" font-size="12">39%</text>
<text text-anchor="start" x="538" y="136.79166666666666" font-family="'Helvetica Neue', Arial, sans-serif" font-size="12" fill="#ba0f27">995</text>
<line x1="71" y1="169.5" x2="528" y2="169.5" stroke="#F3F3F3" stroke-width="1" fill="#FEFEFE" />
<text text-anchor="end" x="62" y="174.16666666666666" font-family="'Helvetica Neue', Arial, sans-serif" font-size="12">30%</text>
<text text-anchor="start" x="538" y="174.16666666666666" font-family="'Helvetica Neue', Arial, sans-serif" font-size="12" fill="#ba0f27">870</text>
<line x1="71" y1="206.875" x2="528" y2="206.875" stroke="#F3F3F3" stroke-width="1" fill="#FEFEFE" />
<text text-anchor="end" x="62" y="211.54166666666666" font-family="'Helvetica Neue', Arial, sans-serif" font-size="12">21%</text>
<text text-anchor="start" x="538" y="211.54166666666666" font-family="'Helvetica Neue', Arial, sans-serif" font-size="12" fill="#ba0f27">745</text>
<line x1="71" y1="244.25" x2="528" y2="244.25" stroke="#F3F3F3" stroke-width="1" fill="#FEFEFE" />
<text text-anchor="end" x="62" y="248.91666666666666" font-family="'Helvetica Neue', Arial, sans-serif" font-size="12">12%</text>
<text text-anchor="start" x="538" y="248.91666666666666" font-family="'Helvetica Neue', Arial, sans-serif" font-size="12" fill="#ba0f27">620</text>
<polyline points="77.75,252 77.75,258" style="fill:none;stroke:#000000;stroke-width:1" />
<polyline points="166.65,252 166.65,258" style="fill:none;stroke:#000000;stroke-width:1" />
<polyline points="255.55,252 255.55,258" style="fill:none;stroke:#000000;stroke-width:1" />
<polyline points="344.45000000000005,252 344.45000000000005,258" style="fill:none;stroke:#000000;stroke-width:1" />
<polyline points="433.35,252 433.35,258" style="fill:none;stroke:#000000;stroke-width:1" />
<polyline points="522.25,252 522.25,258" style="fill:none;stroke:#000000;stroke-width:1" />
<text text-anchor="middle" x="77.75" y="273" font-weight="bold" font-family="'Helvetica Neue', Arial, sans-serif" font-size="14">2004</text>
<text text-anchor="middle" x="166.65" y="273" font-weight="bold" font-family="'Helvetica Neue', Arial, sans-serif" font-size="14">2008</text>
<text text-anchor="middle" x="255.55" y="273" font-weight="bold" font-family="'Helvetica Neue', Arial, sans-serif" font-size="14">2010</text>
<text text-anchor="middle" x="344.45000000000005" y="273" font-weight="bold" font-family="'Helvetica Neue', Arial, sans-serif" font-size="14">2014</text>
<text text-anchor="middle" x="433.35" y="273" font-weight="bold" font-family="'Helvetica Neue', Arial, sans-serif" font-size="14">2016</text>
<text text-anchor="middle" x="522.25" y="273" font-weight="bold" font-family="'Helvetica Neue', Arial, sans-serif" font-size="14">2020</text>
<polyline points="77.75,121.66 166.65,94.75" style="fill:none;stroke:#ba0f27;stroke-width:2.8"  />
<polyline points="166.65,94.75 255.55,163.51999999999998" style="fill:none;stroke:#ba0f27;stroke-width:2.8"  />
<polyline points="255.55,163.51999999999998 344.45000000000005,139.6" style="fill:none;stroke:#ba0f27;stroke-width:2.8"  />
<polyline points="344.45000000000005,139.6 433.35,244.25" style="fill:none;stroke:#ba0f27;stroke-width:2.8"  />
<polyline points="433.35,244.25 522.25,148.57" style="fill:none;stroke:#ba0f27;stroke-width:2.8"  />
<circle cx="77.75" cy="121.66" r="2.75" stroke="#F7F7F7" stroke-width="2.75" fill="#F7F7F7" />
<circle cx="77.75" cy="121.66" r="2.75" stroke="#ba0f27" stroke-width="2.75" fill="#ba0f27"  />
<circle cx="166.65" cy="94.75" r="2.75" stroke="#F7F7F7" stroke-width="2.75" fill="#F7F7F7" />
<circle cx="166.65" cy="94.75" r="2.75" stroke="#ba0f27" stroke-width="2.75" fill="#ba0f27"  />
<circle cx="255.55" cy="163.51999999999998" r="2.75" stroke="#F7F7F7" stroke-width="2.75" fill="#F7F7F7" />
<circle cx="255.55" cy="163.51999999999998" r="2.75" stroke="#ba0f27" stroke-width="2.75" fill="#ba0f27"  />
<circle cx="344.45000000000005" cy="139.6" r="2.75" stroke="#F7F7F7" stroke-width="2.75" fill="#F7F7F7" />
<circle cx="344.45000000000005" cy="139.6" r="2.75" stroke="#ba0f27" stroke-width="2.75" fill="#ba0f27"  />
<circle cx="433.35" cy="244.25" r="2.75" stroke="#F7F7F7" stroke-width="2.75" fill="#F7F7F7" />
<circle cx="433.35" cy="244.25" r="2.75" stroke="#ba0f27" stroke-width="2.75" fill="#ba0f27"  />
<circle cx="522.25" cy="148.57" r="2.75" stroke="#F7F7F7" stroke-width="2.75" fill="#F7F7F7" />
<circle cx="522.25" cy="148.57" r="2.75" stroke="#ba0f27" stroke-width="2.75" fill="#ba0f27"  />
<polyline points="77.75,103.93871753583612 166.65,94.75" style="fill:none;stroke:#000000;stroke-width:2.8" stroke-dasharray="3,1"  />
<polyline points="166.65,94.75 255.55,195.1223138472265" style="fill:none;stroke:#000000;stroke-width:2.8" stroke-dasharray="3,1"  />
<polyline points="255.55,195.1223138472265 344.45000000000005,102.75202248247965" style="fill:none;stroke:#000000;stroke-width:2.8" stroke-dasharray="3,1"  />
<polyline points="344.45000000000005,102.75202248247965 433.35,244.24999999999997" style="fill:none;stroke:#000000;stroke-width:2.8" stroke-dasharray="3,1"  />
<polyline points="433.35,244.24999999999997 522.25,121.93892504087847" style="fill:none;stroke:#000000;stroke-width:2.8" stroke-dasharray="3,1"  />
<polygon points="74.45,103.93871753583612 77.75,100.63871753583612 81.05,103.93871753583612 77.75,107.23871753583612" stroke="#F7F7F7" stroke-width="2.75" fill="#F7F7F7"  />
<polygon points="74.45,103.93871753583612 77.75,100.63871753583612 81.05,103.93871753583612 77.75,107.23871753583612" stroke="#000000" stroke-width="2.75" fill="#000000"  />
<polygon points="163.35,94.75 166.65,91.45 169.95000000000002,94.75 166.65,98.05" stroke="#F7F7F7" stroke-width="2.75" fill="#F7F7F7"  />
<polygon points="163.35,94.75 166.65,91.45 169.95000000000002,94.75 166.65,98.05" stroke="#000000" stroke-width="2.75" fill="#000000"  />
<polygon points="252.25,195.1223138472265 255.55,191.8223138472265 258.85,195.1223138472265 255.55,198.42231384722652" stroke="#F7F7F7" stroke-width="2.75" fill="#F7F7F7"  />
<polygon points="252.25,195.1223138472265 255.55,191.8223138472265 258.85,195.1223138472265 255.55,198.42231384722652" stroke="#000000" stroke-width="2.75" fill="#000000"  />
<polygon points="341.15000000000003,102.75202248247965 344.45000000000005,99.45202248247965 347.75000000000006,102.75202248247965 344.45000000000005,106.05202248247964" stroke="#F7F7F7" stroke-width="2.75" fill="#F7F7F7"  />
<polygon points="341.15000000000003,102.75202248247965 344.45000000000005,99.45202248247965 347.75000000000006,102.75202248247965 344.45000000000005,106.05202248247964" stroke="#000000" stroke-width="2.75" fill="#000000"  />
<polygon points="430.05,244.24999999999997 433.35,240.94999999999996 436.65000000000003,244.24999999999997 433.35,247.54999999999998" stroke="#F7F7F7" stroke-width="2.75" fill="#F7F7F7"  />
<polygon points="430.05,244.24999999999997 433.35,240.94999999999996 436.65000000000003,244.24999999999997 433.35,247.54999999999998" stroke="#000000" stroke-width="2.75" fill="#000000"  />
<polygon points="518.95,121.93892504087847 522.25,118.63892504087848 525.55,121.93892504087847 522.25,125.23892504087847" stroke="#F7F7F7" stroke-width="2.75" fill="#F7F7F7"  />
<polygon points="518.95,121.93892504087847 522.25,118.63892504087848 525.55,121.93892504087847 522.25,125.23892504087847" stroke="#000000" stroke-width="2.75" fill="#000000"  />
</svg>